<svg xmlns="http://www.w3.org/2000/svg" viewBox="0 0 80 80">
  <path d="M42.998047 8C25.681334 8 16.19556 20.277272 16.029297 32.564453L9.3945312 43.833984C8.5669186 45.240774 9.1042504 47.089615 10.558594 47.832031L15.998047 50.611328L15.998047 58C15.998047 62.958516 20.039531 67 24.998047 67L29.998047 67L29.998047 73L31.998047 73L31.998047 67 A 1 1 0 0 0 32.998047 66 A 1 1 0 0 0 31.998047 65L24.998047 65C21.120563 65 17.998047 61.877484 17.998047 58L17.998047 49.388672L11.46875 46.050781C11.015093 45.819197 10.860753 45.28882 11.119141 44.849609L17.998047 33.164062L17.998047 32.890625C17.998047 21.504208 26.468635 10 42.998047 10C43.976922 10 44.942025 10.05224 45.890625 10.15625 A 1.0001 1.0001 0 1 0 46.109375 8.1699219C45.087975 8.0579308 44.049172 8 42.998047 8 z M 52.5625 8L51.134766 11.568359C48.963766 12.198359 46.981562 13.340344 45.351562 14.902344L41.554688 14.355469L39.076172 18.644531L41.449219 21.662109C41.176219 22.769109 41.037109 23.889 41.037109 25C41.037109 26.111 41.176219 27.230891 41.449219 28.337891L39.076172 31.355469L41.554688 35.644531L45.353516 35.097656C46.983516 36.659656 48.963766 37.802641 51.134766 38.431641L52.560547 42L57.513672 42L58.941406 38.431641C61.112406 37.802641 63.092656 36.661609 64.722656 35.099609L68.521484 35.646484L71 31.355469L68.626953 28.339844C68.899953 27.231844 69.037109 26.111 69.037109 25C69.037109 23.889 68.899953 22.769109 68.626953 21.662109L71 18.644531L68.521484 14.355469L64.722656 14.902344C63.092656 13.340344 61.112406 12.197359 58.941406 11.568359L57.515625 8L52.5625 8 z M 53.914062 10L56.160156 10L57.460938 13.25L57.955078 13.373047C60.128078 13.916047 62.098344 15.053203 63.652344 16.658203L64.007812 17.025391L67.466797 16.527344L68.589844 18.472656L66.429688 21.21875L66.568359 21.710938C66.880359 22.800937 67.037109 23.907 67.037109 25C67.037109 26.093 66.880359 27.199063 66.568359 28.289062L66.429688 28.78125L68.589844 31.527344L67.466797 33.472656L64.007812 32.974609L63.652344 33.341797C62.097344 34.946797 60.128078 36.083953 57.955078 36.626953L57.460938 36.75L56.160156 40L53.914062 40L52.615234 36.75L52.119141 36.626953C49.946141 36.083953 47.977828 34.946797 46.423828 33.341797L46.068359 32.974609L42.609375 33.472656L41.486328 31.527344L43.646484 28.78125L43.507812 28.289062C43.195813 27.199063 43.037109 26.093 43.037109 25C43.037109 23.907 43.195812 22.800937 43.507812 21.710938L43.646484 21.21875L41.486328 18.472656L42.609375 16.527344L46.068359 17.025391L46.423828 16.658203C47.978828 15.053203 49.946141 13.916047 52.119141 13.373047L52.615234 13.25L53.914062 10 z M 55 16 A 1.0001 1.0001 0 1 0 55 18 A 1.0001 1.0001 0 1 0 55 16 z M 50.990234 17.082031L50.1875 17.482422L50.03125 18.365234L50.642578 19.019531L50.990234 19.082031L51.791016 18.679688L51.949219 17.798828L51.335938 17.144531L50.990234 17.082031 z M 48.070312 20.011719L47.267578 20.414062L47.111328 21.294922L47.722656 21.949219L48.070312 22.011719L48.871094 21.611328L49.029297 20.728516L48.416016 20.074219L48.070312 20.011719 z M 55 21C52.802706 21 51 22.802706 51 25C51 27.197294 52.802706 29 55 29C57.197294 29 59 27.197294 59 25C59 22.802706 57.197294 21 55 21 z M 55 23C56.116414 23 57 23.883586 57 25C57 26.116414 56.116414 27 55 27C53.883586 27 53 26.116414 53 25C53 23.883586 53.883586 23 55 23 z M 63 24 A 1.0001 1.0001 0 1 0 63 26 A 1.0001 1.0001 0 1 0 63 24 z M 47 24.007812L46.199219 24.410156L46.041016 25.291016L46.654297 25.947266L47 26.007812L47.800781 25.607422L47.958984 24.724609L47.347656 24.070312L47 24.007812 z M 48.080078 28.001953L47.279297 28.404297L47.121094 29.285156L47.732422 29.939453L48.080078 30.001953L48.880859 29.599609L49.039062 28.71875L48.427734 28.064453L48.080078 28.001953 z M 61.929688 28.001953L61.126953 28.402344L60.970703 29.285156L61.582031 29.939453L61.929688 30.001953L62.730469 29.599609L62.888672 28.716797L62.275391 28.0625L61.929688 28.001953 z M 51.005859 30.925781L50.205078 31.326172L50.046875 32.208984L50.660156 32.863281L51.005859 32.925781L51.808594 32.523438L51.964844 31.640625L51.353516 30.986328L51.005859 30.925781 z M 59 30.925781L58.197266 31.326172L58.041016 32.208984L58.652344 32.863281L59 32.925781L59.800781 32.523438L59.958984 31.642578L59.345703 30.988281L59 30.925781 z M 55.001953 32L54.201172 32.400391L54.042969 33.283203L54.654297 33.9375L55.001953 34L55.802734 33.597656L55.960938 32.716797L55.347656 32.0625L55.001953 32 z M 69.525391 38.986328 A 1.0001 1.0001 0 0 0 68.568359 39.8125C67.471342 45.557823 64.470417 49.466634 61.609375 53.361328C58.748333 57.256023 55.998047 61.193753 55.998047 66.734375L55.998047 73L57.998047 73L57.998047 66.734375C57.998047 61.849997 60.380448 58.413977 63.222656 54.544922C66.064864 50.675866 69.341221 46.430177 70.533203 40.1875 A 1.0001 1.0001 0 0 0 69.525391 38.986328 z M 42.998047 61 A 1 1 0 0 0 41.998047 62 A 1 1 0 0 0 42.998047 63 A 1 1 0 0 0 43.998047 62 A 1 1 0 0 0 42.998047 61 z M 39.998047 64 A 1 1 0 0 0 38.998047 65 A 1 1 0 0 0 39.998047 66 A 1 1 0 0 0 40.998047 65 A 1 1 0 0 0 39.998047 64 z M 35.998047 65 A 1 1 0 0 0 34.998047 66 A 1 1 0 0 0 35.998047 67 A 1 1 0 0 0 36.998047 66 A 1 1 0 0 0 35.998047 65 z" fill="#FFFFFF" />
</svg>